<svg xmlns="http://www.w3.org/2000/svg" xmlns:xlink="http://www.w3.org/1999/xlink" width="500" zoomAndPan="magnify" viewBox="0 0 375 374.999991" height="500" preserveAspectRatio="xMidYMid meet" version="1.0"><defs><g/></defs><g fill="#000000" fill-opacity="1"><g transform="translate(46.13379, 218.624986)"><g><path d="M 44.703125 -85.65625 C 50.628906 -85.65625 56.140625 -84.546875 61.234375 -82.328125 C 66.328125 -80.117188 70.832031 -77.03125 74.75 -73.0625 C 78.675781 -69.101562 81.722656 -64.515625 83.890625 -59.296875 C 86.066406 -54.078125 87.15625 -48.460938 87.15625 -42.453125 C 87.15625 -36.441406 86.066406 -30.828125 83.890625 -25.609375 C 81.722656 -20.390625 78.675781 -15.796875 74.75 -11.828125 C 70.832031 -7.867188 66.328125 -4.757812 61.234375 -2.5 C 56.140625 -0.25 50.628906 0.875 44.703125 0.875 C 38.859375 0.875 33.367188 -0.25 28.234375 -2.5 C 23.097656 -4.757812 18.585938 -7.867188 14.703125 -11.828125 C 10.828125 -15.796875 7.78125 -20.390625 5.5625 -25.609375 C 3.351562 -30.828125 2.25 -36.441406 2.25 -42.453125 C 2.25 -48.460938 3.351562 -54.078125 5.5625 -59.296875 C 7.78125 -64.515625 10.828125 -69.101562 14.703125 -73.0625 C 18.585938 -77.03125 23.097656 -80.117188 28.234375 -82.328125 C 33.367188 -84.546875 38.859375 -85.65625 44.703125 -85.65625 Z M 65.859375 -8.390625 C 68.285156 -9.890625 69.519531 -12.789062 69.5625 -17.09375 C 69.601562 -21.394531 68.617188 -26.488281 66.609375 -32.375 C 64.609375 -38.257812 61.644531 -44.289062 57.71875 -50.46875 C 53.882812 -56.726562 49.773438 -62.066406 45.390625 -66.484375 C 41.003906 -70.910156 36.867188 -74.039062 32.984375 -75.875 C 29.109375 -77.71875 25.960938 -77.890625 23.546875 -76.390625 C 21.203125 -74.878906 19.988281 -71.992188 19.90625 -67.734375 C 19.820312 -63.484375 20.800781 -58.414062 22.84375 -52.53125 C 24.894531 -46.644531 27.84375 -40.570312 31.6875 -34.3125 C 35.601562 -28.050781 39.753906 -22.707031 44.140625 -18.28125 C 48.523438 -13.851562 52.65625 -10.742188 56.53125 -8.953125 C 60.414062 -7.160156 63.523438 -6.972656 65.859375 -8.390625 Z M 65.859375 -8.390625 "/></g></g></g><g fill="#000000" fill-opacity="1"><g transform="translate(135.528861, 218.624986)"><g><path d="M 81.265625 -3.75 C 84.773438 -4.34375 87.46875 -6.015625 89.34375 -8.765625 C 91.21875 -11.515625 92.425781 -14.914062 92.96875 -18.96875 C 93.507812 -23.019531 93.53125 -27.398438 93.03125 -32.109375 C 92.53125 -36.828125 91.59375 -41.484375 90.21875 -46.078125 C 88.84375 -50.671875 87.148438 -54.882812 85.140625 -58.71875 C 83.140625 -62.5625 80.972656 -65.570312 78.640625 -67.75 L 114.953125 -67.75 C 115.285156 -64.90625 115.265625 -61.289062 114.890625 -56.90625 C 114.515625 -52.53125 113.738281 -47.773438 112.5625 -42.640625 C 111.394531 -37.503906 109.8125 -32.410156 107.8125 -27.359375 C 105.8125 -22.304688 103.328125 -17.671875 100.359375 -13.453125 C 97.398438 -9.242188 93.914062 -5.863281 89.90625 -3.3125 C 85.894531 -0.769531 81.304688 0.5 76.140625 0.5 C 71.710938 0.5 68.304688 -0.9375 65.921875 -3.8125 C 63.546875 -6.695312 62.359375 -10.519531 62.359375 -15.28125 C 59.265625 -10.6875 55.609375 -6.90625 51.390625 -3.9375 C 47.179688 -0.976562 42.363281 0.5 36.9375 0.5 C 29.675781 0.5 23.664062 -0.976562 18.90625 -3.9375 C 14.144531 -6.90625 10.765625 -10.957031 8.765625 -16.09375 C 6.765625 -21.226562 6.265625 -27.050781 7.265625 -33.5625 C 8.097656 -38.570312 8.492188 -42.847656 8.453125 -46.390625 C 8.410156 -49.941406 7.179688 -52.757812 4.765625 -54.84375 C 3.085938 -56.257812 1.25 -56.757812 -0.75 -56.34375 C -2.75 -55.925781 -4.710938 -54.757812 -6.640625 -52.84375 L -8.640625 -54.84375 C -6.554688 -57.601562 -3.78125 -60.148438 -0.3125 -62.484375 C 3.15625 -64.816406 6.890625 -66.546875 10.890625 -67.671875 C 14.898438 -68.804688 18.78125 -69.019531 22.53125 -68.3125 C 26.289062 -67.601562 29.46875 -65.578125 32.0625 -62.234375 C 34.0625 -59.734375 35.351562 -56.894531 35.9375 -53.71875 C 36.519531 -50.539062 36.707031 -47.175781 36.5 -43.625 C 36.289062 -40.082031 35.894531 -36.476562 35.3125 -32.8125 C 34.3125 -26.382812 33.832031 -21.207031 33.875 -17.28125 C 33.914062 -13.351562 34.3125 -10.410156 35.0625 -8.453125 C 35.8125 -6.492188 36.8125 -5.195312 38.0625 -4.5625 C 39.3125 -3.9375 40.648438 -3.664062 42.078125 -3.75 C 45.660156 -4 48.410156 -5.457031 50.328125 -8.125 C 52.253906 -10.800781 53.488281 -14.269531 54.03125 -18.53125 C 54.570312 -22.789062 54.488281 -27.378906 53.78125 -32.296875 C 53.070312 -37.222656 51.835938 -42.066406 50.078125 -46.828125 C 48.328125 -51.585938 46.15625 -55.820312 43.5625 -59.53125 C 40.976562 -63.25 38.0625 -65.988281 34.8125 -67.75 L 71.125 -67.75 C 72.707031 -65.488281 73.664062 -62.164062 74 -57.78125 C 74.332031 -53.40625 74.039062 -48.523438 73.125 -43.140625 C 72.207031 -37.753906 70.664062 -32.429688 68.5 -27.171875 C 66.65625 -20.992188 66.191406 -16.085938 67.109375 -12.453125 C 68.035156 -8.828125 69.8125 -6.320312 72.4375 -4.9375 C 75.070312 -3.5625 78.015625 -3.164062 81.265625 -3.75 Z M 81.265625 -3.75 "/></g></g></g><g fill="#000000" fill-opacity="1"><g transform="translate(252.96944, 218.624986)"><g><path d="M 2.875 -67.75 L 6.015625 -67.75 C 6.015625 -64.40625 6.640625 -61.984375 7.890625 -60.484375 C 9.140625 -58.984375 10.785156 -58.144531 12.828125 -57.96875 C 14.878906 -57.800781 17.113281 -58.015625 19.53125 -58.609375 C 22.039062 -59.191406 24.503906 -60.296875 26.921875 -61.921875 C 29.335938 -63.546875 31.878906 -65.066406 34.546875 -66.484375 C 37.222656 -67.910156 40.148438 -68.625 43.328125 -68.625 C 50.585938 -68.625 56.597656 -67.140625 61.359375 -64.171875 C 66.117188 -61.210938 69.519531 -57.1875 71.5625 -52.09375 C 73.601562 -47 74.082031 -41.195312 73 -34.6875 C 72.25 -29.675781 71.894531 -25.414062 71.9375 -21.90625 C 71.976562 -18.40625 73.207031 -15.566406 75.625 -13.390625 C 77.300781 -11.972656 79.117188 -11.453125 81.078125 -11.828125 C 83.035156 -12.203125 85.019531 -13.394531 87.03125 -15.40625 L 88.90625 -13.390625 C 86.820312 -10.640625 84.046875 -8.09375 80.578125 -5.75 C 77.109375 -3.414062 73.390625 -1.6875 69.421875 -0.5625 C 65.460938 0.5625 61.601562 0.769531 57.84375 0.0625 C 54.09375 -0.644531 50.878906 -2.671875 48.203125 -6.015625 C 46.203125 -8.597656 44.910156 -11.453125 44.328125 -14.578125 C 43.742188 -17.710938 43.597656 -21.050781 43.890625 -24.59375 C 44.179688 -28.144531 44.578125 -31.757812 45.078125 -35.4375 C 46.078125 -41.863281 46.472656 -46.992188 46.265625 -50.828125 C 46.054688 -54.671875 45.410156 -57.53125 44.328125 -59.40625 C 43.242188 -61.289062 41.882812 -62.398438 40.25 -62.734375 C 38.625 -63.066406 36.894531 -62.941406 35.0625 -62.359375 C 33.226562 -61.773438 31.992188 -60.601562 31.359375 -58.84375 C 30.734375 -57.09375 30.378906 -54.96875 30.296875 -52.46875 L 30.296875 0 L 2.875 0 Z M 2.875 -67.75 "/></g></g></g></svg>