<svg xmlns="http://www.w3.org/2000/svg" xmlns:xlink="http://www.w3.org/1999/xlink" width="500" zoomAndPan="magnify" viewBox="0 0 375 374.999991" height="500" preserveAspectRatio="xMidYMid meet" version="1.0"><defs><g/></defs><rect x="-37.5" width="450" fill="#ffffff" y="-37.499999" height="449.999989" fill-opacity="1"/><rect x="-37.5" width="450" fill="#000000" y="-37.499999" height="449.999989" fill-opacity="1"/><g fill="#ffffff" fill-opacity="1"><g transform="translate(45.826506, 315.975931)"><g><path d="M 141.671875 -271.4375 C 160.453125 -271.4375 177.910156 -267.929688 194.046875 -260.921875 C 210.179688 -253.910156 224.46875 -244.117188 236.90625 -231.546875 C 249.34375 -218.984375 259 -204.429688 265.875 -187.890625 C 272.75 -171.359375 276.1875 -153.570312 276.1875 -134.53125 C 276.1875 -115.476562 272.75 -97.679688 265.875 -81.140625 C 259 -64.609375 249.34375 -50.0625 236.90625 -37.5 C 224.46875 -24.9375 210.179688 -15.082031 194.046875 -7.9375 C 177.910156 -0.789062 160.453125 2.78125 141.671875 2.78125 C 123.148438 2.78125 105.753906 -0.789062 89.484375 -7.9375 C 73.210938 -15.082031 58.925781 -24.9375 46.625 -37.5 C 34.320312 -50.0625 24.664062 -64.609375 17.65625 -81.140625 C 10.644531 -97.679688 7.140625 -115.476562 7.140625 -134.53125 C 7.140625 -153.570312 10.644531 -171.359375 17.65625 -187.890625 C 24.664062 -204.429688 34.320312 -218.984375 46.625 -231.546875 C 58.925781 -244.117188 73.210938 -253.910156 89.484375 -260.921875 C 105.753906 -267.929688 123.148438 -271.4375 141.671875 -271.4375 Z M 208.734375 -26.59375 C 216.398438 -31.351562 220.300781 -40.546875 220.4375 -54.171875 C 220.570312 -67.796875 217.460938 -83.929688 211.109375 -102.578125 C 204.765625 -121.234375 195.375 -140.347656 182.9375 -159.921875 C 170.769531 -179.765625 157.738281 -196.695312 143.84375 -210.71875 C 129.957031 -224.738281 116.863281 -234.65625 104.5625 -240.46875 C 92.257812 -246.289062 82.273438 -246.820312 74.609375 -242.0625 C 67.203125 -237.300781 63.363281 -228.175781 63.09375 -214.6875 C 62.832031 -201.195312 65.941406 -185.125 72.421875 -166.46875 C 78.898438 -147.820312 88.222656 -128.578125 100.390625 -108.734375 C 112.828125 -88.890625 125.988281 -71.957031 139.875 -57.9375 C 153.769531 -43.914062 166.867188 -34.0625 179.171875 -28.375 C 191.472656 -22.6875 201.328125 -22.09375 208.734375 -26.59375 Z M 208.734375 -26.59375 "/></g></g></g></svg>