<svg
  version="1.1"
  xmlns="http://www.w3.org/2000/svg"
  width="500"
  height="500"
>
  <path
    d="M0 0 C4.57358688 4.91010498 9.06678861 10.78602396 10.3359375 17.5078125 C11.2021875 16.9921875 12.0684375 16.4765625 12.9609375 15.9453125 C16.73752187 13.79389763 20.58788591 11.79122946 24.4609375 9.8203125 C25.3573999 9.35612915 25.3573999 9.35612915 26.27197266 8.88256836 C33.90683261 5.03547198 42.89541785 3.76444156 51.1640625 6.4140625 C58.34788054 9.76937871 62.46270926 14.0339237 65.6484375 21.3203125 C69.98274572 34.55228598 66.97935214 49.60286408 65.31616211 63.09130859 C64.30985 71.67438752 63.52067194 80.04528466 66.8359375 88.1953125 C69.57410468 90.72811714 70.21172592 90.91622847 73.7734375 91.0703125 C77.70177082 90.77407753 80.31816895 90.18069322 83.3359375 87.5078125 C90.2882797 77.97317177 90.20692432 65.86784719 88.56396484 54.62963867 C86.0278176 38.93744683 80.46765462 23.2103869 69.3359375 11.5078125 C67.6856681 10.4809782 66.02349883 9.47213326 64.3359375 8.5078125 C64.3359375 7.8478125 64.3359375 7.1878125 64.3359375 6.5078125 C80.5059375 6.5078125 96.6759375 6.5078125 113.3359375 6.5078125 C121.0902536 22.0164447 117.35826437 41.0203796 112.21484375 56.98828125 C111.86292969 57.96410156 111.51101563 58.93992187 111.1484375 59.9453125 C108.53147354 67.28735027 106.99832691 75.48547188 109.4609375 83.0703125 C111.97322426 87.67617156 114.37590893 89.85446964 119.3359375 91.5078125 C125.28317174 92.09087468 129.51172908 90.91313609 134.3359375 87.5078125 C141.35048192 79.01652189 142.03195908 68.11265039 141.3359375 57.5078125 C139.19304884 40.3984495 134.98343836 20.98926302 122.3359375 8.5078125 C122.3359375 7.8478125 122.3359375 7.1878125 122.3359375 6.5078125 C129.29597197 6.48254412 136.2559947 6.46498028 143.21606445 6.45288086 C145.58586062 6.44783909 147.95565365 6.44100585 150.32543945 6.43237305 C153.72347789 6.4203006 157.12147535 6.41458279 160.51953125 6.41015625 C161.58618515 6.40499496 162.65283905 6.39983368 163.7518158 6.39451599 C165.22322777 6.39440269 165.22322777 6.39440269 166.72436523 6.39428711 C167.59262436 6.3920665 168.46088348 6.38984589 169.35545349 6.38755798 C171.3359375 6.5078125 171.3359375 6.5078125 172.3359375 7.5078125 C174.84009624 31.97151714 166.43334449 61.75783471 151.8984375 81.5078125 C144.35842812 90.44981909 135.62588171 97.69826022 123.6015625 98.74609375 C116.99045666 98.90880231 111.69363882 98.67491352 106.3359375 94.5078125 C102.58231659 90.16151461 101.47301685 86.00369602 100.3359375 80.5078125 C99.94664062 81.00410156 99.55734375 81.50039063 99.15625 82.01171875 C92.72173539 89.82505792 84.60038644 96.8221552 74.3359375 98.5078125 C61.42875159 99.60863859 49.0488074 98.12159113 38.26953125 90.26953125 C31.68856701 84.27354161 27.38555276 75.3245807 26.3359375 66.5078125 C26.0621007 58.65443198 26.82556587 51.04686607 27.88867188 43.27539062 C28.59192144 37.12762834 28.15348261 32.10588939 25.3359375 26.5078125 C23.17429931 24.22612892 23.17429931 24.22612892 20.3359375 23.5078125 C17.10037551 23.72630459 17.10037551 23.72630459 14.3359375 24.5078125 C14.49578125 25.65765625 14.655625 26.8075 14.8203125 27.9921875 C17.10517623 46.41693974 14.24926787 63.27352248 3.11328125 78.55859375 C-7.35153069 90.86112877 -21.15091745 97.93151931 -37.1640625 99.3828125 C-52.61639904 100.01223558 -67.08216933 96.04123955 -78.6640625 85.5078125 C-81.3515625 83.0078125 -81.3515625 83.0078125 -83.6640625 80.5078125 C-84.36789063 79.79431641 -84.36789063 79.79431641 -85.0859375 79.06640625 C-95.68947307 67.72499578 -99.38346327 52.58880209 -99.0078125 37.40625 C-97.67049612 22.23986647 -92.12264389 7.97458298 -80.6640625 -2.4921875 C-55.69721283 -22.82282712 -23.69094659 -22.04677995 0 0 Z M-71.6640625 -2.4921875 C-75.51241031 3.19496131 -74.49923105 11.98865935 -73.29345703 18.51318359 C-67.57683293 42.57535268 -51.0653469 70.12152699 -29.91796875 83.20703125 C-22.8068643 86.95181712 -22.8068643 86.95181712 -15.0390625 86.8203125 C-11.74670986 85.00085446 -10.08686245 82.93317999 -9.01171875 79.30859375 C-6.50150146 57.40436891 -19.59253579 35.08874532 -32.6640625 18.5078125 C-41.01194745 8.36967197 -49.89901259 -1.56267253 -62.7890625 -5.4296875 C-66.54534491 -5.51134581 -68.54604041 -4.54724751 -71.6640625 -2.4921875 Z "
    fill="#000000"
    transform="translate(162.6640625,194.4921875)"
  />
  <path
    d="M0 0 C8.17869316 5.60581261 12.96226672 12.63848889 15.125 22.22265625 C16.17285498 28.27795981 16.18701548 33.93644127 15.37890625 40.01953125 C14.82445746 44.323897 14.65620054 48.57328075 14.625 52.91015625 C14.604375 53.63460937 14.58375 54.3590625 14.5625 55.10546875 C14.52771715 59.90550147 15.27245116 63.10453379 17.875 67.28515625 C20.41781192 69.30186915 21.61419595 69.3014565 24.875 69.09765625 C27.89015769 68.28105104 29.55765363 67.3351165 31.875 65.28515625 C33.855 66.27515625 33.855 66.27515625 35.875 67.28515625 C33.35174702 75.18403515 25.76107558 79.49879553 18.6875 83.16015625 C9.88275635 87.20815759 0.51477636 89.37861754 -9.01171875 86.375 C-15.8765173 83.18374088 -19.5220975 79.54820777 -22.875 72.72265625 C-26.42382383 62.96339072 -25.70834079 52.34031619 -24.125 42.22265625 C-23.16961236 35.72739494 -22.86896843 29.34906814 -22.8125 22.78515625 C-22.79509766 21.8530835 -22.77769531 20.92101074 -22.75976562 19.96069336 C-22.76384389 14.30872241 -23.37568735 10.26201419 -26.125 5.28515625 C-29.32250701 3.68640274 -32.65458991 3.78349301 -36.125 4.28515625 C-39.37027434 6.6150968 -40.43493495 8.44185228 -41.125 12.28515625 C-41.24107255 14.69902658 -41.30155455 17.11573836 -41.33032227 19.53222656 C-41.34022186 20.25457489 -41.35012146 20.97692322 -41.36032104 21.72116089 C-41.39183484 24.10183467 -41.4166533 26.48252838 -41.44140625 28.86328125 C-41.46198453 30.51666779 -41.48298123 32.17004916 -41.50437927 33.82342529 C-41.55950974 38.17004208 -41.60895873 42.51670563 -41.65722656 46.86340332 C-41.71635167 52.08143212 -41.78252989 57.29937565 -41.84752655 62.51733398 C-41.9454225 70.43988922 -42.03435617 78.36249976 -42.125 86.28515625 C-54.335 86.28515625 -66.545 86.28515625 -79.125 86.28515625 C-79.125 56.25515625 -79.125 26.22515625 -79.125 -4.71484375 C-77.475 -4.71484375 -75.825 -4.71484375 -74.125 -4.71484375 C-74.02703125 -4.09996094 -73.9290625 -3.48507813 -73.828125 -2.8515625 C-73.67859375 -2.04332031 -73.5290625 -1.23507813 -73.375 -0.40234375 C-73.23578125 0.39816406 -73.0965625 1.19867188 -72.953125 2.0234375 C-71.89412453 4.91570764 -70.79621166 5.7938084 -68.125 7.28515625 C-57.18707493 9.41517324 -47.89620455 3.38679366 -38.984375 -2.12890625 C-27.06537735 -8.73971642 -11.6691106 -6.39370018 0 0 Z "
    fill="#000000"
    transform="translate(420.125,205.71484375)"
  />
</svg>
